<?xml version="1.0" encoding="UTF-8" standalone="no"?>
<!-- Created with Inkscape (http://www.inkscape.org/) -->

<svg
   width="167.20277mm"
   height="232.03885mm"
   viewBox="0 0 167.20278 232.03885"
   version="1.1"
   id="svg5"
   inkscape:version="1.1.1 (1:1.1+202109281949+c3084ef5ed)"
   sodipodi:docname="person.svg"
   xmlns:inkscape="http://www.inkscape.org/namespaces/inkscape"
   xmlns:sodipodi="http://sodipodi.sourceforge.net/DTD/sodipodi-0.dtd"
   xmlns="http://www.w3.org/2000/svg"
   xmlns:svg="http://www.w3.org/2000/svg">
  <sodipodi:namedview
     id="namedview7"
     pagecolor="#ffffff"
     bordercolor="#666666"
     borderopacity="1.0"
     inkscape:pageshadow="2"
     inkscape:pageopacity="0.0"
     inkscape:pagecheckerboard="0"
     inkscape:document-units="mm"
     showgrid="false"
     inkscape:zoom="0.75187991"
     inkscape:cx="86.449976"
     inkscape:cy="426.26488"
     inkscape:window-width="1920"
     inkscape:window-height="1016"
     inkscape:window-x="0"
     inkscape:window-y="27"
     inkscape:window-maximized="1"
     inkscape:current-layer="layer1" />
  <defs
     id="defs2">
    <inkscape:path-effect
       effect="fill_between_many"
       method="originald"
       linkedpaths="#path854,0,1"
       id="path-effect1168"
       is_visible="true"
       lpeversion="0"
       join="true"
       close="true"
       autoreverse="true"
       applied="false" />
    <inkscape:path-effect
       effect="fill_between_many"
       method="originald"
       linkedpaths="#path854,0,1"
       id="path-effect1361"
       is_visible="true"
       lpeversion="0"
       join="true"
       close="true"
       autoreverse="true"
       applied="false" />
  </defs>
  <g
     inkscape:label="Layer 1"
     inkscape:groupmode="layer"
     id="layer1"
     transform="translate(-35.99312,-33.25091)">
    <path
       id="path1363"
       style="fill:#505050;fill-opacity:0.729231;stroke-width:0.963101"
       d="m 96.441089,33.253097 c -1.418868,-0.02052 -2.881069,0.103274 -4.075752,0.376205 -0.959118,0.21911 -2.489078,0.867659 -3.619434,1.53479 -1.713051,1.011021 -2.136521,1.418508 -3.386477,3.258198 -1.199794,1.765861 -1.514228,2.471296 -1.963818,4.403865 -2.187778,9.365866 0.536306,14.042438 3.112746,21.692216 0.916497,3.35874 1.054379,4.971958 0.47789,5.593458 -0.202376,0.218189 -2.061391,0.644576 -2.837613,0.947746 -0.776222,0.30317 -2.128998,0.84028 -3.006362,1.19321 -0.877372,0.352938 -2.501747,1.600084 -4.256483,2.124932 -2.558061,0.765123 -3.506615,1.188443 -4.785641,2.135273 -2.329398,1.72439 -2.278967,1.670354 -3.543217,3.797183 -1.989771,3.347352 -4.048016,7.757348 -5.206005,14.578438 -0.358215,2.110049 -0.876018,4.788956 -1.150874,5.953129 -0.274864,1.16416 -0.645936,3.18824 -0.824455,4.49791 -0.924509,6.7827 -0.793115,6.32857 -2.916251,10.05366 -2.428963,4.26167 -3.278668,6.09047 -5.029147,10.82311 -0.758625,2.05105 -2.119724,5.22858 -3.024581,7.06106 -1.497819,3.03334 -1.805354,3.47497 -3.436328,4.92942 -1.267626,1.13043 -3.090299,2.29842 -6.233226,3.99459 -2.442905,1.31838 -4.511252,2.59247 -4.59631,2.83135 -0.282666,0.79415 -0.160131,1.53969 0.397845,2.42414 0.727581,1.15334 1.840106,1.55253 3.255141,1.1684 0.590143,-0.16021 1.137406,-0.29093 1.216063,-0.29093 0.291357,0 -0.721148,1.78834 -2.321881,4.10104 -0.906507,1.30969 -1.775117,2.64113 -1.929789,2.95899 -0.471425,0.96883 -0.337974,2.16313 0.321153,2.87373 0.879088,0.94774 1.883188,0.85672 3.046631,-0.27647 0.522923,-0.50932 1.007474,-0.92604 1.076578,-0.92604 0.06908,0 -0.02615,0.47404 -0.211386,1.05368 -0.43844,1.37196 -0.692707,3.75013 -0.492752,4.60902 0.224192,0.96301 1.236504,1.42135 3.160233,1.43195 2.011096,0.0111 2.587261,-0.41268 3.847114,-2.83031 0.87714,-1.6832 1.242427,-1.99986 1.242427,-1.07746 0,0.73323 1.071378,1.8402 1.781195,1.8402 1.07039,0 2.151356,-1.57561 2.663168,-3.88142 0.252928,-1.13946 0.463157,-2.36936 0.466867,-2.73316 0.0037,-0.36381 0.346052,-1.67349 0.760701,-2.91042 0.414647,-1.23693 1.017808,-3.25185 1.34021,-4.47725 0.627431,-2.38479 1.087214,-3.26404 3.333272,-6.37067 4.320789,-5.97629 11.357087,-16.79079 12.910793,-19.84375 0.515947,-1.0138 0.932108,-2.5053 1.372329,-4.91649 0.34754,-1.90356 0.993476,-4.69399 1.435117,-6.20117 l 0.80288,-2.74041 0.350869,3.55534 c 0.193026,1.95553 0.354348,5.40133 0.358058,7.6569 0.0065,3.73971 -0.05148,4.30195 -0.660518,6.38514 -0.691832,2.36649 -1.453844,6.33626 -1.74572,9.09298 -0.198684,1.87645 -0.889793,5.72071 -1.593303,8.86355 -0.276887,1.23691 -0.504288,2.96332 -0.505216,3.83645 -9.27e-4,0.87312 -0.155404,2.48047 -0.343198,3.57188 -0.457947,2.66136 -0.726273,17.19577 -0.41271,22.35729 0.175207,2.88396 0.451825,4.87275 1.010914,7.27604 0.729927,3.13773 0.761733,3.49043 0.627923,6.87917 -0.244079,6.18111 -0.567307,9.22603 -1.599527,15.05283 -1.128399,6.36978 -1.295444,9.97436 -0.634638,13.69735 0.20244,1.14059 0.368112,2.62397 0.368131,3.29696 2.8e-5,0.67299 0.214239,2.63751 0.475969,4.36562 0.261759,1.7281 0.66664,6.45311 0.900191,10.49962 0.480487,8.32499 0.522663,7.88404 -1.405879,14.83424 -1.517902,5.47028 -1.585447,6.04284 -0.985026,8.36796 0.483845,1.8737 0.618842,2.09526 2.420142,3.97185 1.049231,1.09309 2.451364,2.37301 3.115657,2.84427 1.168126,0.82869 2.284634,1.07038 3.198098,0.69247 0.573447,-0.23723 2.373931,-3.06845 3.513497,-5.52473 l 0.98216,-2.11667 0.133244,-5.82083 c 0.07328,-3.20137 0.25444,-7.3086 0.402646,-9.12761 0.160116,-1.96574 0.206476,-5.40012 0.114554,-8.46667 -0.175791,-5.86251 -0.07643,-6.68943 1.760107,-14.62288 1.079053,-4.6614 1.088801,-4.74133 1.113011,-9.525 0.01345,-2.65327 0.0028,-6.3718 -0.02393,-8.26357 -0.04489,-3.19601 0.02069,-3.74873 0.926553,-7.80521 0.936263,-4.19248 1.167338,-5.96971 2.374125,-18.25625 0.207245,-2.11005 0.375765,-4.37246 0.374838,-5.0276 -9.28e-4,-0.65513 0.205566,-2.38154 0.459199,-3.83646 0.253633,-1.45491 0.53269,-3.3597 0.620252,-4.23282 0.08756,-0.87313 0.348254,-2.33164 0.579031,-3.24114 0.0871,-0.34339 0.162101,-0.61878 0.232958,-0.83819 0.07087,-0.21942 0.137474,-0.38299 0.206596,-0.50385 0.138235,-0.24172 0.287665,-0.31161 0.506171,-0.31161 0.417737,0 0.582491,0.24178 0.800487,1.17513 0.151007,0.64652 0.274651,1.88623 0.274651,2.75486 0,0.86865 0.165682,2.51294 0.368132,3.65353 0.20245,1.14059 0.368094,2.60979 0.368122,3.26491 1.8e-5,0.65514 0.207533,2.38154 0.461119,3.83646 0.253587,1.45492 0.539139,4.40729 0.634631,6.56084 0.111735,2.5197 0.377463,4.88901 0.745845,6.64663 0.314852,1.50222 0.86536,4.44322 1.223251,6.53551 0.357891,2.0923 0.987039,4.99323 1.398209,6.44664 0.657679,2.32478 0.72886,2.88157 0.591015,4.63021 -0.430324,5.45876 -0.444627,10.17715 -0.03645,12.04216 0.477089,2.17971 1.860209,9.72637 2.471909,13.48806 0.34497,2.12123 0.39737,3.42141 0.26795,6.61458 -0.1376,3.39517 -0.0708,4.72635 0.45728,9.13381 0.34002,2.83817 0.62034,6.5283 0.62313,8.20209 0.006,3.73257 0.49715,5.95891 1.93602,8.78499 1.34886,2.64931 2.38851,3.65222 3.7757,3.64422 0.84818,-0.005 1.40843,-0.27912 3.11277,-1.52135 1.76916,-1.28947 2.25119,-1.81067 3.23645,-3.49953 0.99543,-1.70633 1.20006,-2.29974 1.4591,-4.23437 l 0.30101,-2.24999 -1.14657,-4.36459 c -0.63066,-2.40059 -1.26081,-5.01944 -1.40012,-5.8198 -1.00416,-5.76915 -1.25793,-12.53058 -0.60827,-16.19074 0.76746,-4.32384 1.60168,-12.61851 1.59426,-15.84761 -0.008,-3.68736 -0.43259,-7.54185 -1.17484,-10.69186 -1.05583,-4.48078 -1.31595,-6.76881 -1.35555,-11.90625 -0.0372,-4.82991 -0.009,-5.1568 0.73242,-8.33437 0.72834,-3.12182 1.03147,-5.5341 2.20588,-17.56172 0.50163,-5.13729 0.34541,-16.70771 -0.28089,-20.80286 -0.21142,-1.38245 -0.48189,-3.58511 -0.60108,-4.8948 -0.25177,-2.76649 -0.56714,-4.41977 -2.09085,-10.96108 -0.61367,-2.6346 -1.18506,-5.67413 -1.26974,-6.75463 -0.18173,-2.31766 0.35784,-12.86349 0.67682,-13.22762 0.13365,-0.15258 0.22049,-0.008 0.22049,0.36794 0,0.3404 0.32673,1.76298 0.72619,3.16156 0.95395,3.33987 1.40483,5.42483 1.85213,8.56486 0.43034,3.02104 0.79611,3.78171 7.02796,14.61564 5.75433,10.00378 7.20378,12.86633 7.80448,15.41198 0.28329,1.20055 0.90349,3.13472 1.37808,4.29844 0.47459,1.16372 1.31369,3.81286 1.86507,5.88698 1.06962,4.02358 1.44149,5.0111 2.24136,5.95416 0.66329,0.78202 1.43493,0.75253 2.36358,-0.0899 0.67365,-0.61111 0.75702,-0.84652 0.77316,-2.18282 l 0.0182,-1.49758 0.45009,1.97662 c 0.73655,3.23601 2.40258,4.17228 3.91182,2.19832 l 0.75255,-0.98392 0.71421,0.45475 c 0.93237,0.59378 1.29122,0.57402 2.10522,-0.11627 0.70248,-0.59573 0.72266,-0.88424 0.2229,-3.22771 -0.14956,-0.70125 -0.12434,-0.73499 0.34703,-0.46302 0.79921,0.46113 1.25986,0.35224 2.03189,-0.48007 1.22007,-1.31535 1.04132,-2.01385 -1.61392,-6.30143 -1.2823,-2.07064 -2.33146,-3.80708 -2.33146,-3.85868 0,-0.0516 0.67607,0.0165 1.5027,0.15142 2.81532,0.45938 4.38732,-0.39651 4.38732,-2.38901 0,-1.24484 -0.54686,-1.86365 -2.45417,-2.77709 -0.74239,-0.35555 -2.25822,-1.2445 -3.36827,-1.97559 -1.11004,-0.7311 -2.43529,-1.40983 -2.94501,-1.50843 -2.6426,-0.51096 -2.63612,-0.50611 -3.82698,-2.99465 -1.54683,-3.23243 -2.90232,-7.0164 -3.95496,-11.04274 -1.23792,-4.73496 -2.19269,-7.27895 -3.73975,-9.96115 -2.46201,-4.26846 -4.41232,-12.29943 -4.64856,-19.143017 -0.15511,-4.49298 -1.90935,-11.434061 -2.94548,-14.204302 -0.54837,-1.466148 -1.23764,-2.636186 -2.47144,-4.196124 -1.48055,-1.871951 -1.99158,-2.314824 -3.79678,-3.291274 -1.75933,-0.95163 -5.33,-3.476643 -8.43422,-4.397631 -0.43786,-0.129921 -4.04358,-1.126939 -5.05206,-2.055338 -0.66649,-2.019503 -0.79428,-2.279006 -0.82078,-4.203228 4.05039,-7.979224 6.94692,-10.918209 5.74682,-21.320416 -0.38085,-3.356049 -0.43099,-2.70497 -1.27181,-4.672311 -0.86345,-2.020239 -1.12669,-2.383504 -2.59079,-3.571875 -2.13784,-1.73523 -2.50954,-1.944817 -4.50141,-2.539897 -1.020832,-0.30498 -2.39613,-0.469884 -3.815004,-0.49041 z"
       sodipodi:nodetypes="csssccsssssssscssssscssssssssssssssssssssscccccsssssssssssssssssccsscsscssssssssssssssssssssssscscsscccsscsscsssscsscsssssssccccccsssssscssscsssssssscccssscc" />
    <circle
       style="opacity:1;fill:#ffffff;fill-opacity:1;stroke:#000000;stroke-width:0.529167;stroke-miterlimit:4;stroke-dasharray:none;stroke-opacity:1"
       id="path3590"
       cx="160.48178"
       cy="75.452965"
       r="25" />
  </g>
</svg>
