<!-- Created with Inkscape (http://www.inkscape.org/) -->

<svg
   width="81.406799mm"
   height="80.917137mm"
   viewBox="0 0 81.406799 80.917137"
   version="1.1"
   id="svg1"
   xml:space="preserve"
   inkscape:version="1.4 (e7c3feb1, 2024-10-09)"
   sodipodi:docname="r-logo.svg"
   xmlns:inkscape="http://www.inkscape.org/namespaces/inkscape"
   xmlns:sodipodi="http://sodipodi.sourceforge.net/DTD/sodipodi-0.dtd"
   xmlns:xlink="http://www.w3.org/1999/xlink"
   xmlns="http://www.w3.org/2000/svg"
   xmlns:svg="http://www.w3.org/2000/svg"><sodipodi:namedview
     id="namedview1"
     pagecolor="#ffffff"
     bordercolor="#000000"
     borderopacity="0.25"
     inkscape:showpageshadow="2"
     inkscape:pageopacity="0.0"
     inkscape:pagecheckerboard="0"
     inkscape:deskcolor="#d1d1d1"
     inkscape:document-units="mm"
     inkscape:zoom="0.12078873"
     inkscape:cx="993.47018"
     inkscape:cy="-1088.6777"
     inkscape:window-width="1504"
     inkscape:window-height="944"
     inkscape:window-x="234"
     inkscape:window-y="25"
     inkscape:window-maximized="0"
     inkscape:current-layer="layer1"><inkscape:page
       x="0"
       y="0"
       width="81.406799"
       height="80.917137"
       id="page2"
       margin="0"
       bleed="0" /></sodipodi:namedview><defs
     id="defs1"><linearGradient
       id="linearGradient4"
       inkscape:collect="always"><stop
         style="stop-color:#bf1434;stop-opacity:1;"
         offset="0"
         id="stop4" /><stop
         style="stop-color:#0f55a9;stop-opacity:1;"
         offset="0.65109032"
         id="stop5" /></linearGradient><linearGradient
       id="linearGradient3770"
       inkscape:collect="always"><stop
         style="stop-color:#c41230;stop-opacity:1;"
         offset="0"
         id="stop3770" /><stop
         style="stop-color:#0c56ab;stop-opacity:1;"
         offset="1"
         id="stop3771" /></linearGradient><style
       id="style1">
      .cls-1, .cls-2 {
        fill: none;
      }

      .cls-3 {
        clip-path: url(#clippath-2);
      }

      .cls-4 {
        fill: #fff;
      }

      .cls-5 {
        opacity: .01;
      }

      .cls-6 {
        opacity: .902;
      }

      .cls-7 {
        opacity: .902;
      }

      .cls-8 {
        opacity: .898;
      }

      .cls-9 {
        opacity: .921;
      }

      .cls-10 {
        opacity: .917;
      }

      .cls-11 {
        opacity: .871;
      }

      .cls-12 {
        opacity: .889;
      }

      .cls-13 {
        opacity: .888;
      }

      .cls-14 {
        opacity: .886;
      }

      .cls-15 {
        opacity: .882;
      }

      .cls-16 {
        opacity: .842;
      }

      .cls-17 {
        opacity: .832;
      }

      .cls-18 {
        opacity: .859;
      }

      .cls-19 {
        opacity: .848;
      }

      .cls-20 {
        opacity: .847;
      }

      .cls-21 {
        opacity: .812;
      }

      .cls-22 {
        opacity: .807;
      }

      .cls-23 {
        opacity: .8;
      }

      .cls-24 {
        opacity: .827;
      }

      .cls-25 {
        opacity: .813;
      }

      .cls-26 {
        opacity: .777;
      }

      .cls-27 {
        opacity: .776;
      }

      .cls-28 {
        opacity: .77;
      }

      .cls-29 {
        opacity: .768;
      }

      .cls-30 {
        opacity: .767;
      }

      .cls-31 {
        opacity: .792;
      }

      .cls-32 {
        opacity: .785;
      }

      .cls-33 {
        opacity: .739;
      }

      .cls-34 {
        opacity: .755;
      }

      .cls-35 {
        opacity: .75;
      }

      .cls-36 {
        opacity: .716;
      }

      .cls-37 {
        opacity: .713;
      }

      .cls-38 {
        opacity: .714;
      }

      .cls-39 {
        opacity: .71;
      }

      .cls-40 {
        opacity: .703;
      }

      .cls-41 {
        opacity: .73;
      }

      .cls-42 {
        opacity: .728;
      }

      .cls-43 {
        opacity: .721;
      }

      .cls-44 {
        opacity: .677;
      }

      .cls-45 {
        opacity: .678;
      }

      .cls-46 {
        opacity: .678;
      }

      .cls-47 {
        opacity: .673;
      }

      .cls-48 {
        opacity: .701;
      }

      .cls-49 {
        opacity: .697;
      }

      .cls-50 {
        opacity: .688;
      }

      .cls-51 {
        opacity: .995;
      }

      .cls-52 {
        opacity: .99;
      }

      .cls-53 {
        opacity: .963;
      }

      .cls-54 {
        opacity: .962;
      }

      .cls-55 {
        opacity: .956;
      }

      .cls-56 {
        opacity: .983;
      }

      .cls-57 {
        opacity: .981;
      }

      .cls-58 {
        opacity: .975;
      }

      .cls-59 {
        opacity: .974;
      }

      .cls-60 {
        opacity: .928;
      }

      .cls-61 {
        opacity: .927;
      }

      .cls-62 {
        opacity: .924;
      }

      .cls-63 {
        opacity: .95;
      }

      .cls-64 {
        opacity: .945;
      }

      .cls-65 {
        opacity: .459;
      }

      .cls-66 {
        opacity: .457;
      }

      .cls-67 {
        opacity: .444;
      }

      .cls-68 {
        opacity: .439;
      }

      .cls-69 {
        opacity: .428;
      }

      .cls-70 {
        opacity: .422;
      }

      .cls-71 {
        opacity: .405;
      }

      .cls-72 {
        opacity: .4;
      }

      .cls-73 {
        opacity: .4;
      }

      .cls-74 {
        opacity: .397;
      }

      .cls-75 {
        opacity: .381;
      }

      .cls-76 {
        opacity: .379;
      }

      .cls-77 {
        opacity: .366;
      }

      .cls-78 {
        opacity: .339;
      }

      .cls-79 {
        opacity: .348;
      }

      .cls-80 {
        opacity: .644;
      }

      .cls-81 {
        opacity: .67;
      }

      .cls-82 {
        opacity: .667;
      }

      .cls-83 {
        opacity: .661;
      }

      .cls-84 {
        opacity: .659;
      }

      .cls-85 {
        opacity: .656;
      }

      .cls-86 {
        opacity: .623;
      }

      .cls-87 {
        opacity: .622;
      }

      .cls-88 {
        opacity: .616;
      }

      .cls-89 {
        opacity: .614;
      }

      .cls-90 {
        opacity: .612;
      }

      .cls-91 {
        opacity: .612;
      }

      .cls-92 {
        opacity: .632;
      }

      .cls-93 {
        opacity: .626;
      }

      .cls-94 {
        opacity: .591;
      }

      .cls-95 {
        opacity: .585;
      }

      .cls-96 {
        opacity: .597;
      }

      .cls-97 {
        opacity: .552;
      }

      .cls-98 {
        opacity: .551;
      }

      .cls-99 {
        opacity: .571;
      }

      .cls-100 {
        opacity: .524;
      }

      .cls-101 {
        opacity: .52;
      }

      .cls-102 {
        opacity: .538;
      }

      .cls-103 {
        opacity: .493;
      }

      .cls-104 {
        opacity: .508;
      }

      .cls-105 {
        opacity: .509;
      }

      .cls-106 {
        opacity: .477;
      }

      .cls-107 {
        opacity: .491;
      }

      .cls-108 {
        opacity: .489;
      }

      .cls-109 {
        opacity: .463;
      }

      .cls-110 {
        opacity: .472;
      }

      .cls-111 {
        opacity: .227;
      }

      .cls-112 {
        opacity: .192;
      }

      .cls-113 {
        opacity: .192;
      }

      .cls-114 {
        opacity: .177;
      }

      .cls-115 {
        opacity: .324;
      }

      .cls-116 {
        opacity: .332;
      }

      .cls-117 {
        opacity: .331;
      }

      .cls-118 {
        opacity: .317;
      }

      .cls-119 {
        opacity: .295;
      }

      .cls-120 {
        opacity: .278;
      }

      .cls-121 {
        opacity: .261;
      }

      .cls-122 {
        opacity: .258;
      }

      .cls-123 {
        opacity: .257;
      }

      .cls-124 {
        opacity: .255;
      }

      .cls-125 {
        opacity: .245;
      }

      .cls-126 {
        opacity: .232;
      }

      .cls-127 {
        opacity: .167;
      }

      .cls-128 {
        opacity: .141;
      }

      .cls-129 {
        opacity: .126;
      }

      .cls-130 {
        opacity: .019;
      }

      .cls-131 {
        fill: #c41230;
      }

      .cls-132 {
        clip-path: url(#clippath);
      }

      .cls-2 {
        stroke: #231f20;
        stroke-miterlimit: 10;
        stroke-width: 32px;
      }
    </style><linearGradient
       id="linearGradient3258"
       inkscape:swatch="solid"><stop
         style="stop-color:#000000;stop-opacity:1;"
         offset="0"
         id="stop3256" /></linearGradient><style
       id="style1-1">
      .cls-1, .cls-2 {
        fill: none;
      }

      .cls-3 {
        clip-path: url(#clippath-2);
      }

      .cls-4 {
        fill: #fff;
      }

      .cls-5 {
        opacity: .01;
      }

      .cls-6 {
        opacity: .902;
      }

      .cls-7 {
        opacity: .902;
      }

      .cls-8 {
        opacity: .898;
      }

      .cls-9 {
        opacity: .921;
      }

      .cls-10 {
        opacity: .917;
      }

      .cls-11 {
        opacity: .871;
      }

      .cls-12 {
        opacity: .889;
      }

      .cls-13 {
        opacity: .888;
      }

      .cls-14 {
        opacity: .886;
      }

      .cls-15 {
        opacity: .882;
      }

      .cls-16 {
        opacity: .842;
      }

      .cls-17 {
        opacity: .832;
      }

      .cls-18 {
        opacity: .859;
      }

      .cls-19 {
        opacity: .848;
      }

      .cls-20 {
        opacity: .847;
      }

      .cls-21 {
        opacity: .812;
      }

      .cls-22 {
        opacity: .807;
      }

      .cls-23 {
        opacity: .8;
      }

      .cls-24 {
        opacity: .827;
      }

      .cls-25 {
        opacity: .813;
      }

      .cls-26 {
        opacity: .777;
      }

      .cls-27 {
        opacity: .776;
      }

      .cls-28 {
        opacity: .77;
      }

      .cls-29 {
        opacity: .768;
      }

      .cls-30 {
        opacity: .767;
      }

      .cls-31 {
        opacity: .792;
      }

      .cls-32 {
        opacity: .785;
      }

      .cls-33 {
        opacity: .739;
      }

      .cls-34 {
        opacity: .755;
      }

      .cls-35 {
        opacity: .75;
      }

      .cls-36 {
        opacity: .716;
      }

      .cls-37 {
        opacity: .713;
      }

      .cls-38 {
        opacity: .714;
      }

      .cls-39 {
        opacity: .71;
      }

      .cls-40 {
        opacity: .703;
      }

      .cls-41 {
        opacity: .73;
      }

      .cls-42 {
        opacity: .728;
      }

      .cls-43 {
        opacity: .721;
      }

      .cls-44 {
        opacity: .677;
      }

      .cls-45 {
        opacity: .678;
      }

      .cls-46 {
        opacity: .678;
      }

      .cls-47 {
        opacity: .673;
      }

      .cls-48 {
        opacity: .701;
      }

      .cls-49 {
        opacity: .697;
      }

      .cls-50 {
        opacity: .688;
      }

      .cls-51 {
        opacity: .995;
      }

      .cls-52 {
        opacity: .99;
      }

      .cls-53 {
        opacity: .963;
      }

      .cls-54 {
        opacity: .962;
      }

      .cls-55 {
        opacity: .956;
      }

      .cls-56 {
        opacity: .983;
      }

      .cls-57 {
        opacity: .981;
      }

      .cls-58 {
        opacity: .975;
      }

      .cls-59 {
        opacity: .974;
      }

      .cls-60 {
        opacity: .928;
      }

      .cls-61 {
        opacity: .927;
      }

      .cls-62 {
        opacity: .924;
      }

      .cls-63 {
        opacity: .95;
      }

      .cls-64 {
        opacity: .945;
      }

      .cls-65 {
        opacity: .459;
      }

      .cls-66 {
        opacity: .457;
      }

      .cls-67 {
        opacity: .444;
      }

      .cls-68 {
        opacity: .439;
      }

      .cls-69 {
        opacity: .428;
      }

      .cls-70 {
        opacity: .422;
      }

      .cls-71 {
        opacity: .405;
      }

      .cls-72 {
        opacity: .4;
      }

      .cls-73 {
        opacity: .4;
      }

      .cls-74 {
        opacity: .397;
      }

      .cls-75 {
        opacity: .381;
      }

      .cls-76 {
        opacity: .379;
      }

      .cls-77 {
        opacity: .366;
      }

      .cls-78 {
        opacity: .339;
      }

      .cls-79 {
        opacity: .348;
      }

      .cls-80 {
        opacity: .644;
      }

      .cls-81 {
        opacity: .67;
      }

      .cls-82 {
        opacity: .667;
      }

      .cls-83 {
        opacity: .661;
      }

      .cls-84 {
        opacity: .659;
      }

      .cls-85 {
        opacity: .656;
      }

      .cls-86 {
        opacity: .623;
      }

      .cls-87 {
        opacity: .622;
      }

      .cls-88 {
        opacity: .616;
      }

      .cls-89 {
        opacity: .614;
      }

      .cls-90 {
        opacity: .612;
      }

      .cls-91 {
        opacity: .612;
      }

      .cls-92 {
        opacity: .632;
      }

      .cls-93 {
        opacity: .626;
      }

      .cls-94 {
        opacity: .591;
      }

      .cls-95 {
        opacity: .585;
      }

      .cls-96 {
        opacity: .597;
      }

      .cls-97 {
        opacity: .552;
      }

      .cls-98 {
        opacity: .551;
      }

      .cls-99 {
        opacity: .571;
      }

      .cls-100 {
        opacity: .524;
      }

      .cls-101 {
        opacity: .52;
      }

      .cls-102 {
        opacity: .538;
      }

      .cls-103 {
        opacity: .493;
      }

      .cls-104 {
        opacity: .508;
      }

      .cls-105 {
        opacity: .509;
      }

      .cls-106 {
        opacity: .477;
      }

      .cls-107 {
        opacity: .491;
      }

      .cls-108 {
        opacity: .489;
      }

      .cls-109 {
        opacity: .463;
      }

      .cls-110 {
        opacity: .472;
      }

      .cls-111 {
        opacity: .227;
      }

      .cls-112 {
        opacity: .192;
      }

      .cls-113 {
        opacity: .192;
      }

      .cls-114 {
        opacity: .177;
      }

      .cls-115 {
        opacity: .324;
      }

      .cls-116 {
        opacity: .332;
      }

      .cls-117 {
        opacity: .331;
      }

      .cls-118 {
        opacity: .317;
      }

      .cls-119 {
        opacity: .295;
      }

      .cls-120 {
        opacity: .278;
      }

      .cls-121 {
        opacity: .261;
      }

      .cls-122 {
        opacity: .258;
      }

      .cls-123 {
        opacity: .257;
      }

      .cls-124 {
        opacity: .255;
      }

      .cls-125 {
        opacity: .245;
      }

      .cls-126 {
        opacity: .232;
      }

      .cls-127 {
        opacity: .167;
      }

      .cls-128 {
        opacity: .141;
      }

      .cls-129 {
        opacity: .126;
      }

      .cls-130 {
        opacity: .019;
      }

      .cls-131 {
        fill: #c41230;
      }

      .cls-132 {
        clip-path: url(#clippath);
      }

      .cls-2 {
        stroke: #231f20;
        stroke-miterlimit: 10;
        stroke-width: 32px;
      }
    </style><linearGradient
       inkscape:collect="always"
       xlink:href="#linearGradient4"
       id="linearGradient5"
       x1="103.2196"
       y1="129.05225"
       x2="175.03654"
       y2="104.32369"
       gradientUnits="userSpaceOnUse"
       gradientTransform="translate(-75.023384,0.54761594)" /><linearGradient
       inkscape:collect="always"
       xlink:href="#linearGradient3770"
       id="linearGradient7"
       x1="143.00446"
       y1="208.3217"
       x2="210.24673"
       y2="208.3217"
       gradientUnits="userSpaceOnUse"
       gradientTransform="matrix(0.54048393,0,0,0.54048393,78.114049,64.079666)" /><style
       id="style2">
      .hex { fill:#dddce9; stroke:#6d6b86; stroke-width:2.2; }
      .hexDark { fill:#7d4e7f; stroke:#5e3c5e; stroke-width:2.2; }
      .hexRed { fill:#8d4660; stroke:#6a3047; stroke-width:2.2; }
      .hexBlue { fill:#6f8ab7; stroke:#546a94; stroke-width:2.2; }
      .nodeInner { stroke:#333; stroke-width:0.8; fill:none; }
      .thin { stroke-width:2; fill:none; stroke-linecap:round; stroke-linejoin:round; }
      .label { font-family: Menlo, Monaco, Consolas, monospace; font-size:18px; fill:#dfe8f1; }
    </style><style
       id="style2-8">
      .hex { fill:#dddce9; stroke:#6d6b86; stroke-width:2.2; }
      .hexDark { fill:#7d4e7f; stroke:#5e3c5e; stroke-width:2.2; }
      .hexRed { fill:#8d4660; stroke:#6a3047; stroke-width:2.2; }
      .hexBlue { fill:#6f8ab7; stroke:#546a94; stroke-width:2.2; }
      .nodeInner { stroke:#333; stroke-width:0.8; fill:none; }
      .thin { stroke-width:2; fill:none; stroke-linecap:round; stroke-linejoin:round; }
      .label { font-family: Menlo, Monaco, Consolas, monospace; font-size:18px; fill:#dfe8f1; }
    </style></defs><g
     inkscape:label="Layer 1"
     inkscape:groupmode="layer"
     id="layer1"
     transform="translate(3.4441348,-88.021523)"><g
       id="g132853"
       transform="translate(-29.571261,8.7618551)"
       inkscape:export-filename="cpp-logo"
       inkscape:export-xdpi="96"
       inkscape:export-ydpi="96"><path
         id="path2"
         style="fill:url(#linearGradient5);stroke:#0f1840;stroke-opacity:1"
         d="m 64.114246,79.759663 c -6.28674,0 -6.52436,0.02903 -6.94893,0.85007 -0.32126,0.62123 -0.77082,2.99911 -1.23455,6.53036 l -0.40205,3.06234 -1.23868,0.46767 c -0.68118,0.25738 -1.68707,0.67409 -2.23552,0.92553 l -0.99736,0.45682 -3.175,-2.4567 c -4.83559,-3.74147 -4.55459,-3.61401 -5.95674,-2.69648 -2.3721,1.55222 -8.38037,7.79255 -8.63978,8.97362 -0.13663,0.62207 0.20979,1.23402 1.85829,3.28403 1.32973,1.653597 3.37992,4.357817 3.6747,4.847257 0.0538,0.0894 -0.15153,0.68245 -0.4563,1.31775 -0.30477,0.63529 -0.70847,1.58296 -0.8971,2.10633 -0.18863,0.52337 -0.38872,1.00395 -0.44442,1.06815 -0.0557,0.0642 -2.18965,0.4358 -4.74234,0.82579 -3.62288,0.55349 -4.70841,0.76885 -4.94699,0.98134 -0.67651,0.60253 -0.70435,0.87443 -0.70435,6.86005 0,6.07756 0.0346,6.38932 0.76326,6.86676 0.21965,0.14391 2.05888,0.48197 4.97283,0.91416 l 4.62452,0.68626 0.40566,1.18287 c 0.22335,0.65081 0.65915,1.69236 0.96841,2.31459 0.30927,0.62223 0.56276,1.19639 0.56276,1.27589 0,0.0795 -1.00332,1.44811 -2.22932,3.04116 -1.226,1.59304 -2.44477,3.21595 -2.70836,3.6065 -0.89684,1.32884 -0.63164,2.03799 1.69292,4.52375 2.00072,2.13946 6.18913,6.08624 6.73188,6.3438 0.86804,0.41191 1.26721,0.21427 4.52686,-2.24069 1.67123,-1.25867 3.29637,-2.49858 3.61115,-2.7559 l 0.57206,-0.46819 1.40405,0.61908 c 0.77222,0.34056 1.74914,0.73286 2.17092,0.87127 0.42177,0.1384 0.79586,0.2978 0.83096,0.3545 0.0351,0.0567 0.36574,2.11023 0.73536,4.56354 0.36962,2.45331 0.76369,4.66354 0.87539,4.91133 0.1117,0.24779 0.42338,0.55911 0.69299,0.69195 0.42995,0.21187 1.19768,0.24194 6.24148,0.24494 6.30699,0.004 6.54587,-0.0255 6.96856,-0.84284 0.31616,-0.61139 0.74962,-2.87298 1.18443,-6.18102 0.20637,-1.57011 0.40501,-2.98994 0.44131,-3.15536 0.0481,-0.21899 0.33567,-0.39588 1.05834,-0.65009 0.54591,-0.19203 1.53903,-0.60082 2.20658,-0.90847 l 1.21336,-0.55914 3.45716,2.71043 c 3.73647,2.92988 4.24939,3.21646 5.06377,2.82567 0.99587,-0.47789 2.46975,-1.74486 4.98264,-4.28295 3.77376,-3.81161 4.5951,-4.96952 4.22041,-5.9526 -0.0805,-0.21115 -0.92832,-1.3642 -1.88412,-2.56212 -0.95581,-1.19792 -2.1825,-2.78393 -2.72541,-3.52433 l -0.98702,-1.34617 0.49661,-0.99633 c 0.27299,-0.54788 0.67963,-1.49004 0.90382,-2.09393 0.22418,-0.60388 0.45536,-1.15136 0.51366,-1.21646 0.0583,-0.0651 2.19414,-0.43723 4.74648,-0.82682 3.61462,-0.55173 4.708234,-0.76801 4.945444,-0.97927 0.67522,-0.6014 0.70331,-0.87501 0.70331,-6.85901 0,-6.07281 -0.0354,-6.38978 -0.76016,-6.8647 -0.21163,-0.13866 -2.126044,-0.49976 -4.949574,-0.93328 l -4.60488,-0.70693 -0.47801,-1.23765 c -0.26282,-0.68068 -0.7141,-1.74553 -1.00304,-2.36678 -0.30358,-0.6527 -0.47844,-1.20909 -0.41444,-1.31775 0.0609,-0.10342 1.14868,-1.5461 2.41742,-3.20601 1.26874,-1.659907 2.44249,-3.240947 2.60863,-3.513487 0.33526,-0.54991 0.39166,-1.2977 0.13487,-1.78593 -0.64187,-1.2204 -7.7762,-8.43917 -8.73745,-8.84081 -0.30136,-0.12591 -0.70331,-0.17747 -0.97978,-0.12557 -0.29732,0.05578 -1.80306,1.09614 -4.11552,2.84375 l -3.6468,2.75642 -1.09451,-0.49816 c -0.60193,-0.27379 -1.57363,-0.66785 -2.15956,-0.87591 -0.58594,-0.20807 -1.09036,-0.41889 -1.12086,-0.46819 -0.0305,-0.04932 -0.35873,-2.0986 -0.72967,-4.55425 -0.37095,-2.45566 -0.7666,-4.6685 -0.87902,-4.91753 -0.41229,-0.91329 -0.59575,-0.93792 -6.95564,-0.93792 z m -0.01,17.91622 a 19.559504,19.559504 0 0 1 19.55953,19.559537 19.559504,19.559504 0 0 1 -19.55953,19.55953 19.559504,19.559504 0 0 1 -19.55953,-19.55953 19.559504,19.559504 0 0 1 19.55953,-19.559537 z" /><g
         id="g132846"
         transform="matrix(0.8748821,0,0,0.8748821,-62.722384,-20.203365)"><circle
           style="fill:#ffffff;fill-opacity:1;stroke:#273b78;stroke-width:1.39684;stroke-miterlimit:3.5;stroke-dasharray:none;stroke-opacity:1;paint-order:markers fill stroke"
           id="path4"
           cx="172.72087"
           cy="184.29254"
           r="21.185577" /><path
           style="fill:url(#linearGradient7);stroke-width:0.268427"
           d="m 155.70073,188.54196 c -0.0194,-0.0313 -0.0923,-0.42282 -0.16205,-0.87001 -0.19199,-1.23051 -0.17342,-3.73481 0.0378,-5.10988 0.0871,-0.5664 0.20009,-1.07216 0.25122,-1.12388 0.0771,-0.078 0.20588,-0.0632 0.7548,0.0873 0.36401,0.0997 0.69365,0.21317 0.73252,0.25205 0.075,0.075 0.0781,0.0586 -0.29437,1.49476 -0.31624,1.21918 -0.45205,2.28881 -0.49372,3.88843 l -0.0374,1.43818 h -0.37682 c -0.20724,0 -0.39264,-0.0256 -0.412,-0.0569 z m 28.40637,-0.35145 c 0.3148,-1.36742 0.39162,-3.20142 0.19808,-4.7284 -0.0732,-0.57803 -0.0907,-0.93577 -0.0477,-0.97876 0.0968,-0.0968 6.26948,-1.84794 6.34635,-1.80044 0.15076,0.0932 0.61679,1.89772 0.84296,3.26407 0.24311,1.46877 0.38899,4.16575 0.24556,4.53956 -0.0386,0.10047 -0.44512,0.11235 -3.86117,0.11235 h -3.81805 z m -13.54019,0.0695 c -0.83227,-0.31559 -1.3586,-0.7943 -1.7261,-1.56993 -0.20706,-0.43701 -0.22261,-0.52332 -0.21894,-1.21612 0.004,-0.71674 0.0151,-0.77057 0.29364,-1.38493 0.60648,-1.33812 9.33275,-19.10124 9.44404,-19.2242 0.22394,-0.24745 0.80507,-0.0657 0.80507,0.25194 0,0.0533 -1.10057,4.87628 -2.4457,10.71764 -1.70987,7.42526 -2.49825,10.72411 -2.62039,10.96459 -0.29319,0.57725 -0.71162,0.98815 -1.30476,1.28129 -0.4938,0.24405 -0.59367,0.2673 -1.22048,0.28414 -0.5101,0.0136 -0.7645,-0.0127 -1.00638,-0.10437 z m 1.83062,-1.67133 c 0.39667,-0.2749 0.61198,-0.69069 0.61153,-1.18097 -5.5e-4,-0.46175 -0.13025,-0.74914 -0.47523,-1.05204 -0.7241,-0.63577 -1.78039,-0.43014 -2.20903,0.43005 -0.26682,0.53543 -0.22003,1.01981 0.14621,1.51369 0.40694,0.54876 1.34815,0.69009 1.92652,0.28927 z m 11.47144,-5.39377 c -0.0393,-0.0488 -0.15543,-0.32847 -0.25804,-0.62144 -0.29319,-0.83703 -1.13592,-2.45676 -1.66006,-3.19058 -0.26292,-0.36814 -0.74453,-0.96898 -1.0702,-1.33523 -0.34176,-0.38431 -0.57637,-0.70707 -0.5548,-0.76325 0.0913,-0.23784 3.34305,-4.08577 3.45277,-4.08577 0.32665,0 2.68886,2.26276 3.633,3.48005 0.85917,1.10774 1.64374,2.35881 2.23793,3.56859 0.23686,0.4823 0.25735,0.5627 0.16598,0.65162 -0.0809,0.0787 -5.73647,2.38479 -5.84866,2.38479 -0.0146,0 -0.0586,-0.0399 -0.0979,-0.0888 z m -26.86306,-1.11475 c -0.51316,-0.20381 -0.67989,-0.30256 -0.6964,-0.41245 -0.0256,-0.17105 0.52393,-1.59086 0.92783,-2.39673 0.77179,-1.53997 1.91734,-3.16472 3.07487,-4.36114 0.55654,-0.57525 0.7396,-0.72477 0.826,-0.67471 0.15914,0.0923 1.75831,1.96599 1.76059,2.06289 0.001,0.0446 -0.34801,0.37282 -0.77566,0.72954 -1.58366,1.32094 -2.99812,3.11524 -3.88199,4.92447 -0.24366,0.49878 -0.28987,0.50357 -1.23524,0.12813 z m 21.68583,-5.96983 -0.5084,-0.35583 0.0953,-0.40791 c 0.0523,-0.22437 0.31311,-1.35998 0.57941,-2.5236 l 0.4842,-2.11567 0.17755,0.0415 c 0.2372,0.0556 2.15654,0.98749 2.41973,1.1749 0.11444,0.0814 0.20772,0.18594 0.2073,0.23211 -0.001,0.14195 -2.74185,4.27303 -2.84747,4.29221 -0.0545,0.01 -0.32794,-0.1421 -0.60754,-0.3378 z m -14.62296,-0.62234 c -0.14992,-0.10458 -1.59415,-2.29532 -1.59197,-2.41484 0.002,-0.13284 0.0463,-0.16929 0.85001,-0.70666 1.99212,-1.33185 4.34902,-2.25311 6.7804,-2.65031 0.68003,-0.11109 0.86787,-0.12112 0.93887,-0.0501 0.099,0.099 0.36131,3.71256 0.28412,3.91372 -0.0343,0.0892 -0.14152,0.116 -0.46535,0.116 -1.81065,0 -3.95539,0.52576 -5.81583,1.42569 -0.47854,0.23148 -0.87804,0.42038 -0.88776,0.41979 -0.01,-5.5e-4 -0.0514,-0.0246 -0.0925,-0.0533 z m 9.14544,-1.61407 c -0.24542,-0.0484 -0.46704,-0.10895 -0.4925,-0.13441 -0.0498,-0.0498 0.11287,-4.09076 0.16821,-4.1803 0.0745,-0.12062 2.41479,0.004 2.80878,0.1507 0.10653,0.0394 -0.0183,0.33473 -0.90462,2.14009 -0.56553,1.1519 -1.05195,2.09833 -1.08093,2.1032 -0.029,0.004 -0.25351,-0.0308 -0.49894,-0.0793 z"
           id="path3" /></g><text
         xml:space="preserve"
         style="font-style:normal;font-variant:normal;font-weight:900;font-stretch:normal;font-size:37.4408px;font-family:'Arial Black';-inkscape-font-specification:'Arial Black,  Heavy';text-align:start;letter-spacing:-1.33608px;word-spacing:0px;writing-mode:lr-tb;direction:ltr;text-anchor:start;white-space:pre;inline-size:280.268;display:inline;fill:#3b458c;fill-opacity:1;stroke:none;stroke-width:53.0657;stroke-miterlimit:3.5;stroke-dasharray:none;stroke-opacity:1;paint-order:markers fill stroke"
         x="297.3299"
         y="-8.1749945"
         id="text10"
         transform="matrix(0.51804946,0,0,0.51804946,-106.2444,128.52166)"><tspan
           x="297.3299"
           y="-8.1749945"
           id="tspan3"><tspan
             style="font-weight:bold;font-family:'Devanagari MT';-inkscape-font-specification:'Devanagari MT Bold';stroke-width:53.0658"
             id="tspan1">C</tspan><tspan
             style="font-weight:bold;font-family:'Devanagari MT';-inkscape-font-specification:'Devanagari MT Bold';stroke-width:53.0658"
             id="tspan2">++</tspan></tspan></text></g></g></svg>
