<!-- Created with Inkscape (http://www.inkscape.org/) -->

<svg
   width="114.32673mm"
   height="66.768356mm"
   viewBox="0 0 114.32673 66.768356"
   version="1.1"
   id="svg1"
   xml:space="preserve"
   inkscape:version="1.4 (e7c3feb1, 2024-10-09)"
   sodipodi:docname="r-logo.svg"
   xmlns:inkscape="http://www.inkscape.org/namespaces/inkscape"
   xmlns:sodipodi="http://sodipodi.sourceforge.net/DTD/sodipodi-0.dtd"
   xmlns:xlink="http://www.w3.org/1999/xlink"
   xmlns="http://www.w3.org/2000/svg"
   xmlns:svg="http://www.w3.org/2000/svg"><sodipodi:namedview
     id="namedview1"
     pagecolor="#ffffff"
     bordercolor="#000000"
     borderopacity="0.25"
     inkscape:showpageshadow="2"
     inkscape:pageopacity="0.0"
     inkscape:pagecheckerboard="0"
     inkscape:deskcolor="#d1d1d1"
     inkscape:document-units="mm"
     inkscape:zoom="0.12078873"
     inkscape:cx="993.47018"
     inkscape:cy="-1088.6777"
     inkscape:window-width="1504"
     inkscape:window-height="944"
     inkscape:window-x="234"
     inkscape:window-y="25"
     inkscape:window-maximized="0"
     inkscape:current-layer="layer1"><inkscape:page
       x="-1.079752e-13"
       y="0"
       width="114.32674"
       height="66.768356"
       id="page2"
       margin="0"
       bleed="0" /></sodipodi:namedview><defs
     id="defs1"><linearGradient
       id="linearGradient132857"
       inkscape:collect="always"><stop
         style="stop-color:#bf1434;stop-opacity:1;"
         offset="0"
         id="stop132856" /><stop
         style="stop-color:#0f55a9;stop-opacity:1;"
         offset="1"
         id="stop132857" /></linearGradient><style
       id="style1">
      .cls-1, .cls-2 {
        fill: none;
      }

      .cls-3 {
        clip-path: url(#clippath-2);
      }

      .cls-4 {
        fill: #fff;
      }

      .cls-5 {
        opacity: .01;
      }

      .cls-6 {
        opacity: .902;
      }

      .cls-7 {
        opacity: .902;
      }

      .cls-8 {
        opacity: .898;
      }

      .cls-9 {
        opacity: .921;
      }

      .cls-10 {
        opacity: .917;
      }

      .cls-11 {
        opacity: .871;
      }

      .cls-12 {
        opacity: .889;
      }

      .cls-13 {
        opacity: .888;
      }

      .cls-14 {
        opacity: .886;
      }

      .cls-15 {
        opacity: .882;
      }

      .cls-16 {
        opacity: .842;
      }

      .cls-17 {
        opacity: .832;
      }

      .cls-18 {
        opacity: .859;
      }

      .cls-19 {
        opacity: .848;
      }

      .cls-20 {
        opacity: .847;
      }

      .cls-21 {
        opacity: .812;
      }

      .cls-22 {
        opacity: .807;
      }

      .cls-23 {
        opacity: .8;
      }

      .cls-24 {
        opacity: .827;
      }

      .cls-25 {
        opacity: .813;
      }

      .cls-26 {
        opacity: .777;
      }

      .cls-27 {
        opacity: .776;
      }

      .cls-28 {
        opacity: .77;
      }

      .cls-29 {
        opacity: .768;
      }

      .cls-30 {
        opacity: .767;
      }

      .cls-31 {
        opacity: .792;
      }

      .cls-32 {
        opacity: .785;
      }

      .cls-33 {
        opacity: .739;
      }

      .cls-34 {
        opacity: .755;
      }

      .cls-35 {
        opacity: .75;
      }

      .cls-36 {
        opacity: .716;
      }

      .cls-37 {
        opacity: .713;
      }

      .cls-38 {
        opacity: .714;
      }

      .cls-39 {
        opacity: .71;
      }

      .cls-40 {
        opacity: .703;
      }

      .cls-41 {
        opacity: .73;
      }

      .cls-42 {
        opacity: .728;
      }

      .cls-43 {
        opacity: .721;
      }

      .cls-44 {
        opacity: .677;
      }

      .cls-45 {
        opacity: .678;
      }

      .cls-46 {
        opacity: .678;
      }

      .cls-47 {
        opacity: .673;
      }

      .cls-48 {
        opacity: .701;
      }

      .cls-49 {
        opacity: .697;
      }

      .cls-50 {
        opacity: .688;
      }

      .cls-51 {
        opacity: .995;
      }

      .cls-52 {
        opacity: .99;
      }

      .cls-53 {
        opacity: .963;
      }

      .cls-54 {
        opacity: .962;
      }

      .cls-55 {
        opacity: .956;
      }

      .cls-56 {
        opacity: .983;
      }

      .cls-57 {
        opacity: .981;
      }

      .cls-58 {
        opacity: .975;
      }

      .cls-59 {
        opacity: .974;
      }

      .cls-60 {
        opacity: .928;
      }

      .cls-61 {
        opacity: .927;
      }

      .cls-62 {
        opacity: .924;
      }

      .cls-63 {
        opacity: .95;
      }

      .cls-64 {
        opacity: .945;
      }

      .cls-65 {
        opacity: .459;
      }

      .cls-66 {
        opacity: .457;
      }

      .cls-67 {
        opacity: .444;
      }

      .cls-68 {
        opacity: .439;
      }

      .cls-69 {
        opacity: .428;
      }

      .cls-70 {
        opacity: .422;
      }

      .cls-71 {
        opacity: .405;
      }

      .cls-72 {
        opacity: .4;
      }

      .cls-73 {
        opacity: .4;
      }

      .cls-74 {
        opacity: .397;
      }

      .cls-75 {
        opacity: .381;
      }

      .cls-76 {
        opacity: .379;
      }

      .cls-77 {
        opacity: .366;
      }

      .cls-78 {
        opacity: .339;
      }

      .cls-79 {
        opacity: .348;
      }

      .cls-80 {
        opacity: .644;
      }

      .cls-81 {
        opacity: .67;
      }

      .cls-82 {
        opacity: .667;
      }

      .cls-83 {
        opacity: .661;
      }

      .cls-84 {
        opacity: .659;
      }

      .cls-85 {
        opacity: .656;
      }

      .cls-86 {
        opacity: .623;
      }

      .cls-87 {
        opacity: .622;
      }

      .cls-88 {
        opacity: .616;
      }

      .cls-89 {
        opacity: .614;
      }

      .cls-90 {
        opacity: .612;
      }

      .cls-91 {
        opacity: .612;
      }

      .cls-92 {
        opacity: .632;
      }

      .cls-93 {
        opacity: .626;
      }

      .cls-94 {
        opacity: .591;
      }

      .cls-95 {
        opacity: .585;
      }

      .cls-96 {
        opacity: .597;
      }

      .cls-97 {
        opacity: .552;
      }

      .cls-98 {
        opacity: .551;
      }

      .cls-99 {
        opacity: .571;
      }

      .cls-100 {
        opacity: .524;
      }

      .cls-101 {
        opacity: .52;
      }

      .cls-102 {
        opacity: .538;
      }

      .cls-103 {
        opacity: .493;
      }

      .cls-104 {
        opacity: .508;
      }

      .cls-105 {
        opacity: .509;
      }

      .cls-106 {
        opacity: .477;
      }

      .cls-107 {
        opacity: .491;
      }

      .cls-108 {
        opacity: .489;
      }

      .cls-109 {
        opacity: .463;
      }

      .cls-110 {
        opacity: .472;
      }

      .cls-111 {
        opacity: .227;
      }

      .cls-112 {
        opacity: .192;
      }

      .cls-113 {
        opacity: .192;
      }

      .cls-114 {
        opacity: .177;
      }

      .cls-115 {
        opacity: .324;
      }

      .cls-116 {
        opacity: .332;
      }

      .cls-117 {
        opacity: .331;
      }

      .cls-118 {
        opacity: .317;
      }

      .cls-119 {
        opacity: .295;
      }

      .cls-120 {
        opacity: .278;
      }

      .cls-121 {
        opacity: .261;
      }

      .cls-122 {
        opacity: .258;
      }

      .cls-123 {
        opacity: .257;
      }

      .cls-124 {
        opacity: .255;
      }

      .cls-125 {
        opacity: .245;
      }

      .cls-126 {
        opacity: .232;
      }

      .cls-127 {
        opacity: .167;
      }

      .cls-128 {
        opacity: .141;
      }

      .cls-129 {
        opacity: .126;
      }

      .cls-130 {
        opacity: .019;
      }

      .cls-131 {
        fill: #c41230;
      }

      .cls-132 {
        clip-path: url(#clippath);
      }

      .cls-2 {
        stroke: #231f20;
        stroke-miterlimit: 10;
        stroke-width: 32px;
      }
    </style><linearGradient
       id="linearGradient3258"
       inkscape:swatch="solid"><stop
         style="stop-color:#000000;stop-opacity:1;"
         offset="0"
         id="stop3256" /></linearGradient><style
       id="style1-1">
      .cls-1, .cls-2 {
        fill: none;
      }

      .cls-3 {
        clip-path: url(#clippath-2);
      }

      .cls-4 {
        fill: #fff;
      }

      .cls-5 {
        opacity: .01;
      }

      .cls-6 {
        opacity: .902;
      }

      .cls-7 {
        opacity: .902;
      }

      .cls-8 {
        opacity: .898;
      }

      .cls-9 {
        opacity: .921;
      }

      .cls-10 {
        opacity: .917;
      }

      .cls-11 {
        opacity: .871;
      }

      .cls-12 {
        opacity: .889;
      }

      .cls-13 {
        opacity: .888;
      }

      .cls-14 {
        opacity: .886;
      }

      .cls-15 {
        opacity: .882;
      }

      .cls-16 {
        opacity: .842;
      }

      .cls-17 {
        opacity: .832;
      }

      .cls-18 {
        opacity: .859;
      }

      .cls-19 {
        opacity: .848;
      }

      .cls-20 {
        opacity: .847;
      }

      .cls-21 {
        opacity: .812;
      }

      .cls-22 {
        opacity: .807;
      }

      .cls-23 {
        opacity: .8;
      }

      .cls-24 {
        opacity: .827;
      }

      .cls-25 {
        opacity: .813;
      }

      .cls-26 {
        opacity: .777;
      }

      .cls-27 {
        opacity: .776;
      }

      .cls-28 {
        opacity: .77;
      }

      .cls-29 {
        opacity: .768;
      }

      .cls-30 {
        opacity: .767;
      }

      .cls-31 {
        opacity: .792;
      }

      .cls-32 {
        opacity: .785;
      }

      .cls-33 {
        opacity: .739;
      }

      .cls-34 {
        opacity: .755;
      }

      .cls-35 {
        opacity: .75;
      }

      .cls-36 {
        opacity: .716;
      }

      .cls-37 {
        opacity: .713;
      }

      .cls-38 {
        opacity: .714;
      }

      .cls-39 {
        opacity: .71;
      }

      .cls-40 {
        opacity: .703;
      }

      .cls-41 {
        opacity: .73;
      }

      .cls-42 {
        opacity: .728;
      }

      .cls-43 {
        opacity: .721;
      }

      .cls-44 {
        opacity: .677;
      }

      .cls-45 {
        opacity: .678;
      }

      .cls-46 {
        opacity: .678;
      }

      .cls-47 {
        opacity: .673;
      }

      .cls-48 {
        opacity: .701;
      }

      .cls-49 {
        opacity: .697;
      }

      .cls-50 {
        opacity: .688;
      }

      .cls-51 {
        opacity: .995;
      }

      .cls-52 {
        opacity: .99;
      }

      .cls-53 {
        opacity: .963;
      }

      .cls-54 {
        opacity: .962;
      }

      .cls-55 {
        opacity: .956;
      }

      .cls-56 {
        opacity: .983;
      }

      .cls-57 {
        opacity: .981;
      }

      .cls-58 {
        opacity: .975;
      }

      .cls-59 {
        opacity: .974;
      }

      .cls-60 {
        opacity: .928;
      }

      .cls-61 {
        opacity: .927;
      }

      .cls-62 {
        opacity: .924;
      }

      .cls-63 {
        opacity: .95;
      }

      .cls-64 {
        opacity: .945;
      }

      .cls-65 {
        opacity: .459;
      }

      .cls-66 {
        opacity: .457;
      }

      .cls-67 {
        opacity: .444;
      }

      .cls-68 {
        opacity: .439;
      }

      .cls-69 {
        opacity: .428;
      }

      .cls-70 {
        opacity: .422;
      }

      .cls-71 {
        opacity: .405;
      }

      .cls-72 {
        opacity: .4;
      }

      .cls-73 {
        opacity: .4;
      }

      .cls-74 {
        opacity: .397;
      }

      .cls-75 {
        opacity: .381;
      }

      .cls-76 {
        opacity: .379;
      }

      .cls-77 {
        opacity: .366;
      }

      .cls-78 {
        opacity: .339;
      }

      .cls-79 {
        opacity: .348;
      }

      .cls-80 {
        opacity: .644;
      }

      .cls-81 {
        opacity: .67;
      }

      .cls-82 {
        opacity: .667;
      }

      .cls-83 {
        opacity: .661;
      }

      .cls-84 {
        opacity: .659;
      }

      .cls-85 {
        opacity: .656;
      }

      .cls-86 {
        opacity: .623;
      }

      .cls-87 {
        opacity: .622;
      }

      .cls-88 {
        opacity: .616;
      }

      .cls-89 {
        opacity: .614;
      }

      .cls-90 {
        opacity: .612;
      }

      .cls-91 {
        opacity: .612;
      }

      .cls-92 {
        opacity: .632;
      }

      .cls-93 {
        opacity: .626;
      }

      .cls-94 {
        opacity: .591;
      }

      .cls-95 {
        opacity: .585;
      }

      .cls-96 {
        opacity: .597;
      }

      .cls-97 {
        opacity: .552;
      }

      .cls-98 {
        opacity: .551;
      }

      .cls-99 {
        opacity: .571;
      }

      .cls-100 {
        opacity: .524;
      }

      .cls-101 {
        opacity: .52;
      }

      .cls-102 {
        opacity: .538;
      }

      .cls-103 {
        opacity: .493;
      }

      .cls-104 {
        opacity: .508;
      }

      .cls-105 {
        opacity: .509;
      }

      .cls-106 {
        opacity: .477;
      }

      .cls-107 {
        opacity: .491;
      }

      .cls-108 {
        opacity: .489;
      }

      .cls-109 {
        opacity: .463;
      }

      .cls-110 {
        opacity: .472;
      }

      .cls-111 {
        opacity: .227;
      }

      .cls-112 {
        opacity: .192;
      }

      .cls-113 {
        opacity: .192;
      }

      .cls-114 {
        opacity: .177;
      }

      .cls-115 {
        opacity: .324;
      }

      .cls-116 {
        opacity: .332;
      }

      .cls-117 {
        opacity: .331;
      }

      .cls-118 {
        opacity: .317;
      }

      .cls-119 {
        opacity: .295;
      }

      .cls-120 {
        opacity: .278;
      }

      .cls-121 {
        opacity: .261;
      }

      .cls-122 {
        opacity: .258;
      }

      .cls-123 {
        opacity: .257;
      }

      .cls-124 {
        opacity: .255;
      }

      .cls-125 {
        opacity: .245;
      }

      .cls-126 {
        opacity: .232;
      }

      .cls-127 {
        opacity: .167;
      }

      .cls-128 {
        opacity: .141;
      }

      .cls-129 {
        opacity: .126;
      }

      .cls-130 {
        opacity: .019;
      }

      .cls-131 {
        fill: #c41230;
      }

      .cls-132 {
        clip-path: url(#clippath);
      }

      .cls-2 {
        stroke: #231f20;
        stroke-miterlimit: 10;
        stroke-width: 32px;
      }
    </style><style
       id="style2">
      .hex { fill:#dddce9; stroke:#6d6b86; stroke-width:2.2; }
      .hexDark { fill:#7d4e7f; stroke:#5e3c5e; stroke-width:2.2; }
      .hexRed { fill:#8d4660; stroke:#6a3047; stroke-width:2.2; }
      .hexBlue { fill:#6f8ab7; stroke:#546a94; stroke-width:2.2; }
      .nodeInner { stroke:#333; stroke-width:0.8; fill:none; }
      .thin { stroke-width:2; fill:none; stroke-linecap:round; stroke-linejoin:round; }
      .label { font-family: Menlo, Monaco, Consolas, monospace; font-size:18px; fill:#dfe8f1; }
    </style><style
       id="style2-8">
      .hex { fill:#dddce9; stroke:#6d6b86; stroke-width:2.2; }
      .hexDark { fill:#7d4e7f; stroke:#5e3c5e; stroke-width:2.2; }
      .hexRed { fill:#8d4660; stroke:#6a3047; stroke-width:2.2; }
      .hexBlue { fill:#6f8ab7; stroke:#546a94; stroke-width:2.2; }
      .nodeInner { stroke:#333; stroke-width:0.8; fill:none; }
      .thin { stroke-width:2; fill:none; stroke-linecap:round; stroke-linejoin:round; }
      .label { font-family: Menlo, Monaco, Consolas, monospace; font-size:18px; fill:#dfe8f1; }
    </style><linearGradient
       id="g-0-8"
       x1="0.7414425"
       x2="590.86261"
       y1="3.6658268"
       y2="593.78699"
       gradientUnits="userSpaceOnUse"
       spreadMethod="pad"
       gradientTransform="matrix(0.32330556,0,0,0.21652686,-24.311535,194.41984)"><stop
         offset="0"
         stop-color="#cbced0"
         stop-opacity="1"
         id="stop1-7" /><stop
         offset="1"
         stop-color="#84838b"
         stop-opacity="1"
         id="stop2-4" /></linearGradient><linearGradient
       inkscape:collect="always"
       xlink:href="#linearGradient132857"
       id="linearGradient132856"
       x1="123.37909"
       y1="80.909775"
       x2="109.44617"
       y2="-32.564766"
       gradientUnits="userSpaceOnUse" /></defs><g
     inkscape:label="Layer 1"
     inkscape:groupmode="layer"
     id="layer1"
     transform="translate(-89.915775,-217.00696)"><g
       id="g132852"
       transform="translate(30.666493,227.26062)"
       inkscape:export-filename="r-logo"
       inkscape:export-xdpi="96"
       inkscape:export-ydpi="96"><path
         d="m 118.20644,56.435904 0.5552,0.0788 m 46.69852,-9.08115 c -1.14486,-0.88813 -2.18491,-1.46528 -3.08444,-1.7116 -5.4528,-1.49314 -6.23261,-1.88057 -9.25302,-4.59713 -1.02778,-0.9244 -1.90753,-1.68072 -1.95502,-1.68072 -0.0475,0 -0.40437,0.16588 -0.7931,0.36861 -1.58126,0.82468 -2.66652,0.19456 -3.1984,-1.85705 -0.19238,-0.74209 -0.46064,-1.38648 -0.59613,-1.43198 -0.13549,-0.0455 -0.90927,-0.57075 -1.71951,-1.16722 -1.51911,-1.11831 -1.96711,-1.92072 -1.52921,-2.73895 0.19675,-0.36764 0.008,-0.781 -0.96717,-2.11588 l -1.21169,-1.65897 -0.86252,0.41131 c -0.83497,0.39817 -0.86252,0.45577 -0.86252,1.80312 0,1.1271 -0.1056,1.48924 -0.5552,1.90403 -0.59137,0.54558 -3.5672,2.37454 -10.5488,6.48334 -2.37502,1.39775 -5.48415,3.23287 -6.90916,4.07805 -4.11555,2.44095 -4.06064,2.41932 -4.96005,1.95421 -0.42086,-0.21763 -4.16846,-2.423299 -8.32801,-4.90149 -2.35928,-1.40562 -4.26708,-2.541762 -5.81196,-3.459833 -5.98238,-3.555149 -6.522357,-3.840187 -6.761302,-3.840187 -0.15356,0 -2.11485,1.13816 -4.35843,2.52924 l -4.07924,2.52925 -3e-5,3.37626 c -3e-5,3.09046 -0.0394,3.38876 -0.46501,3.52384 -0.25573,0.0812 -1.63936,0.85973 -3.07472,1.73013 l -2.60975,1.58256 -2.97079,-1.74422 -2.9708,-1.74422 -0.0163,-2.00502 c -0.0455,-5.5905 -0.15724,-5.17124 1.66225,-6.23753 1.10534,-0.64778 1.22021,-0.81109 0.84998,-1.20845 -0.12013,-0.12893 -0.82276,-1.40034 -1.5614,-2.82535 -2.15253,-4.15276 -2.58959,-4.75999 -3.29806,-4.58217 -1.46922,0.36875 -3.06507,-1.31923 -3.06507,-3.24202 0,-1.04632 0.1107,-1.31626 0.82288,-2.00654 2.04625,-1.9833 5.09926,-0.66254 5.09926,2.20599 0,0.96906 -0.13665,1.34754 -0.73081,2.02426 -0.49762,0.56675 -0.65035,0.91279 -0.47866,1.08448 0.13868,0.13868 0.99498,1.68549 1.90289,3.43734 2.42952,4.68786 2.02587,4.25552 3.36549,3.60469 0.62489,-0.30359 1.33858,-0.55199 1.58599,-0.55199 0.24741,0 1.47354,0.61715 2.72473,1.37143 1.2512,0.75429 2.41983,1.42705 2.59697,1.49502 0.17713,0.068 1.25211,-0.47291 2.38884,-1.20197 1.13674,-0.72906 2.97993,-1.86541 4.09599,-2.52522 l 2.02921,-1.19966 0.0682,-12.42134 0.0682,-12.4213498 0.74026,-0.60466 c 0.40715,-0.33256 0.81497,-0.60865 0.90627,-0.61353 0.0913,-0.005 2.090018,-1.15941 4.441602,-2.56562 8.01081,-4.79033997 12.90972,-7.65629 14.4732,-8.46709 l 1.56114,-0.80958 1.2558,0.63636 c 0.69069,0.35 2.76418,1.52816 4.60776,2.61813 5.3593,3.16857 7.28914,4.3074 11.68225,6.89386 l 4.13544,2.43475 2.89709,-2.0285 c 1.5934,-1.11567 3.36901,-2.3471 3.9458,-2.7365 l 1.04871,-0.708 10e-4,-3.37541 0.001,-3.37541 2.48321,-1.4699 c 1.36576,-0.80844 2.53764,-1.55796 2.60415,-1.6656 0.28197,-0.45624 1.22927,-0.10277 3.77599,1.40893 1.48679,0.88254 2.777,1.72393 2.86712,1.86975 0.0901,0.14582 0.14821,1.72782 0.1291,3.51555 -0.0282,2.63808 -0.10782,3.30564 -0.42261,3.54348 -0.3379,0.25531 -0.26534,0.39834 0.56326,1.1104 1.57397,1.35259 3.576,3.17757 5.20462,4.74432 1.51628,1.45867 1.55045,1.47578 2.3617,1.18243 1.5234,-0.55087 2.35874,-0.38902 3.40809,0.6603298 0.79903,0.79903 0.958,1.12466 0.958,1.96243 0,1.32209 -0.34638,2.02771 -1.3243,2.69779 -0.99213,0.67982 -2.19369,0.70425 -3.22704,0.0656 -1.16229,-0.71834 -1.46934,-1.46555 -1.29352,-3.14776 l 0.14973,-1.43249 -2.02586,-1.8613898 c -2.73684,-2.51464 -5.79882,-5.16432 -5.96792,-5.16432 -0.0759,0 -1.03324,0.55521 -2.12734,1.23378 -1.09409,0.67858 -2.05707,1.23378 -2.13994,1.23378 -0.21556,0 -3.48361,-1.95029 -4.44238,-2.6511 l -0.80743,-0.5902 -0.91986,0.55679 c -0.50592,0.30623 -1.53057,1.01296 -2.27701,1.5705 -0.74643,0.55755 -1.91235,1.37055 -2.59093,1.80669 -2.56753,1.65018 -2.34418,0.90777 -2.34418,7.7919198 v 6.06132 l 0.80196,0.41117 c 0.44108,0.22614 1.29631,0.74945 1.90054,1.1629 l 1.09858,0.75173 2.97289,-0.42145 c 1.63509,-0.2318 3.29898,-0.41913 3.69753,-0.4163 0.39855,0.003 1.81375,0.51426 3.14489,1.1365 1.97553,0.92347 2.79454,1.16669 4.45723,1.32365 3.28531,0.31015 3.35431,0.3685 7.11902,6.01969 3.91495,5.87669 4.58814,6.65765 7.16222,8.30886 1.7181,1.10211 2.22902,1.72313 1.41763,1.72313 -0.46049,0 -3.62734,-2.17985 -4.64436,-3.19686 -0.55234,-0.55234 -2.49107,-3.26952 -4.30829,-6.03818 -1.8172,-2.76865 -3.56467,-5.20191 -3.88325,-5.40723 -0.65738,-0.42368 -2.4299,-0.80751 -2.4299,-0.52618 0,0.10193 0.19414,0.32729 0.43143,0.5008 0.76015,0.55584 0.12795,0.67012 -0.84703,0.15311 -1.54282,-0.8181 -6.81494,-3.05613 -7.48729,-3.17837 -0.34298,-0.0624 -1.54893,0.0622 -2.67989,0.2767 -1.13095,0.21454 -2.5437,0.39007 -3.13942,0.39007 -1.07201,0 -1.08315,0.009 -1.08315,0.85796 0,1.41927 0.72677,1.71267 3.80997,1.53807 2.45162,-0.13884 2.58391,-0.1202 3.38053,0.47615 0.45599,0.34136 1.2565,0.84201 1.77893,1.11257 2.13522,1.10578 3.86574,3.22945 4.23484,5.19692 0.22577,1.20345 -0.022,1.85576 -0.87171,2.29518 -1.34109,0.6935 -2.92579,0.34016 -5.13455,-1.14487 -2.15707,-1.45028 -3.93125,-1.83969 -5.4727,-1.2012 -1.69894,0.70373 -0.51723,2.00246 4.27227,4.69536 1.05986,0.5959 2.99504,2.05405 4.30286,3.24219 2.79919,2.54302 4.34102,3.41595 7.30631,4.13662 2.69169,0.65416 3.82951,1.17927 5.64296,2.60421 0.948,0.74491 1.36492,1.23159 1.26906,1.4814 -0.19741,0.51446 -0.24251,0.49353 -2.18738,-1.01523 z m -42.25506,-6.53536 c 3.01866,-1.78659 7.56158,-4.48186 10.09539,-5.9895 l 4.60691,-2.74115 0.0815,-1.20842 c 0.0895,-1.32701 0.17039,-1.22491 -2.13942,-2.70028 l -1.23378,-0.78806 -0.066,-2.46473 -0.066,-2.46472 0.8063,-0.52856 c 0.44346,-0.2907 1.28479,-0.8237 1.86963,-1.18442 l 1.06335,-0.65587 -0.11345,-5.77024 c -0.0624,-3.17363 -0.17333,-5.8671298 -0.24652,-5.9855498 -0.0732,-0.11842 -1.27792,-0.88806 -2.67717,-1.71031 -1.39927,-0.82224 -4.48733,-2.6364 -6.86235,-4.03146 -2.37502,-1.39506 -5.77814,-3.40870997 -7.56249,-4.47477 -1.78435,-1.06607 -3.34715,-1.9383 -3.4729,-1.9383 -0.24918,0 -2.89178,1.53986 -13.67453,7.96828 l -7.066882,4.2131 -0.14492,1.05727 c -0.0797,0.5814998 -0.13989,5.8826598 -0.13376,11.7803698 l 0.0112,10.72309 1.52526,0.91691 c 1.479538,0.88943 9.609212,5.66282 13.619162,7.99658 1.08731,0.63281 2.59284,1.53178 3.34562,1.99772 0.75279,0.46593 1.58429,0.97957 1.84779,1.14141 0.2635,0.16185 0.61873,0.24829 0.78939,0.1921 0.17066,-0.0562 2.78011,-1.56391 5.79877,-3.35049 z m 26.67922,-2.08119 c 0.0759,-0.19769 -0.17659,-0.56144 -0.59781,-0.86137 -0.40102,-0.28555 -0.72911,-0.4425 -0.72911,-0.34879 0,0.0937 -0.16657,0.0322 -0.37014,-0.13679 -0.49125,-0.4077 -0.49358,0.0325 -0.005,0.97699 0.519,1.00365 1.38671,1.19223 1.70225,0.36996 z m 4.97327,-4.91231 c 0.91461,-0.38215 1.02625,-0.7255 0.56501,-1.73781 -0.17857,-0.39191 -0.42538,-0.58636 -0.63981,-0.50407 -0.19201,0.0737 -0.60521,0.19824 -0.91822,0.27681 -0.59645,0.14969 -0.90838,0.99519 -0.6839,1.85366 0.14701,0.56213 0.53629,0.58799 1.67692,0.11141 z m -1.29551,-2.81288 1.17998,-0.6057 -0.51179,-0.54478 -0.5118,-0.54477 -1.09368,0.50314 c -0.8468,0.38957 -1.21109,0.75293 -1.61382,1.60971 -0.41824,0.88974 -0.45574,1.14366 -0.1914,1.29591 0.18082,0.10414 0.55084,0.35574 0.82227,0.55912 0.4706,0.35262 0.49923,0.32252 0.61689,-0.64857 0.11178,-0.92263 0.2343,-1.0753 1.30335,-1.62406 z m -3.13107,-0.1865 c 0.53087,-1.39011 0.94119,-1.82495 1.72196,-1.82495 0.97727,0 0.68633,-0.59629 -0.64056,-1.31293 l -1.23986,-0.66962 -1.18041,0.5078 c -1.15238,0.49575 -1.18775,0.54335 -1.48952,2.00437 -0.17002,0.82311 -0.27458,1.52068 -0.23238,1.55016 0.21323,0.1489 2.08911,0.83652 2.33884,0.85731 0.15842,0.0132 0.48328,-0.48728 0.72193,-1.11214 z m -4.92092,0.38673 c 0.96887,-0.26853 1.03328,-0.34468 1.19308,-1.41029 0.26505,-1.76749 0.52902,-2.22525 1.59753,-2.77036 0.54833,-0.27974 0.99697,-0.59204 0.99697,-0.69399 0,-0.10196 -1.33213,-0.18298 -2.96028,-0.18005 -2.33387,0.004 -2.96044,0.0766 -2.96106,0.34217 -4.4e-4,0.18527 -0.4087,0.71048 -0.90725,1.16713 l -0.90646,0.83028 1.04444,1.23865 c 0.5958,0.70659 0.9688,1.36106 0.86833,1.52362 -0.10914,0.17659 -0.0678,0.21801 0.10876,0.1089 0.15668,-0.0968 0.28488,-0.0492 0.28488,0.10582 0,0.15503 0.13881,0.2234 0.30845,0.15193 0.16964,-0.0715 0.76931,-0.25769 1.33261,-0.41381 z m -73.439832,6.43442 c -0.19964,-0.12626 -0.30258,-0.28997 -0.22874,-0.36381 0.0738,-0.0738 0.34822,0.0276 0.60974,0.22549 0.52026,0.3936 0.20413,0.50836 -0.381,0.13832 z m -1.24092,-0.76447 c 0,-0.14373 0.11104,-0.19269 0.24675,-0.10882 0.13572,0.0839 0.24676,0.20147 0.24676,0.26132 0,0.0598 -0.11104,0.10882 -0.24676,0.10882 -0.13571,0 -0.24675,-0.1176 -0.24675,-0.26132 z m -1.41885,-0.39561 c -0.16964,-0.0685 -0.30844,-0.23985 -0.30844,-0.38087 0,-0.14421 0.17855,-0.10822 0.40805,0.0822 0.22444,0.18626 0.43726,0.28314 0.47295,0.21528 0.0357,-0.0679 0.14817,-0.0401 0.24996,0.0617 0.20387,0.20387 -0.33573,0.21807 -0.82252,0.0217 z m -9.66725,-2.4608 c -0.61071,-0.77639 -0.66165,-1.98661 -0.11639,-2.76508 1.25615,-1.7934 3.79981,-0.71294 3.79981,1.61404 0,1.63819 -2.64907,2.46601 -3.68342,1.15104 z"
         style="fill:url(#linearGradient132856)"
         id="path1-2"
         sodipodi:nodetypes="cccssssssssccsssssssssscscsccccssssscssssssscsscccscsscssscsscccscsssssssssssscssssscsscscsscscsssssssssssccsssssssssssssscccscsscccsscssssssscsccssssscccssccccssssssscccsssssscsscsscscsssscsscsssssssscsscssssscssssssss" /><g
         id="g132851"
         transform="matrix(0.99903383,0,0,0.99903383,-2.8708044,-2.487661)"><path
           sodipodi:type="star"
           style="fill:#fdfdfd;fill-opacity:1;fill-rule:nonzero;stroke:#494083;stroke-width:7.99277;stroke-linejoin:round;stroke-miterlimit:4;stroke-dasharray:none;stroke-dashoffset:0;stroke-opacity:1;paint-order:fill markers stroke"
           id="path55-9-1-2"
           sodipodi:sides="6"
           sodipodi:cx="169.73918"
           sodipodi:cy="195.99792"
           sodipodi:r1="195.99792"
           sodipodi:r2="169.7392"
           sodipodi:arg1="1.5707963"
           sodipodi:arg2="2.0943951"
           inkscape:flatsided="true"
           inkscape:rounded="0"
           inkscape:randomized="0"
           inkscape:export-xdpi="201.92999"
           inkscape:export-ydpi="201.92999"
           d="M 169.73919,391.99585 2.1745353e-6,293.99689 -3.0772089e-6,97.998967 169.73918,0 l 169.73918,97.998958 10e-6,195.997922 z"
           inkscape:label="back-back"
           transform="matrix(0.14817328,0,0,0.14817328,95.13043,-7.1813617)"
           inkscape:export-filename="epiworld.png" /><g
           id="g132850"
           transform="matrix(0.21085137,0,0,0.21085137,105.24271,-34.811485)"><path
             d="m 71.322903,322.99067 c -52.684891,0 -95.394726,-28.60384 -95.394726,-63.88841 0,-35.28483 42.709835,-63.88867 95.394726,-63.88867 52.685157,0 95.394727,28.60384 95.394727,63.88867 0,35.28457 -42.70957,63.88841 -95.394727,63.88841 z M 85.924728,220.19184 c -40.045216,0 -72.508268,19.55483 -72.508268,43.67689 0,24.12206 32.463052,43.67689 72.508268,43.67689 40.044952,0 69.597582,-13.36913 69.597582,-43.67689 0,-30.29823 -29.55263,-43.67689 -69.597582,-43.67689 z"
             fill="url(#g)"
             fill-rule="evenodd"
             id="path4-2"
             style="fill:url(#g-0-8);stroke-width:0.264583" /><path
             d="m 121.2093,294.16776 c 0,0 5.77373,1.74228 9.12812,3.43958 1.1639,0.58896 3.17765,1.76424 4.63021,3.30729 1.42293,1.5113 2.11667,3.04271 2.11667,3.04271 l 22.75416,38.36458 -36.77708,0.0164 -17.19792,-32.29557 c 0,0 -3.5216,-6.05076 -5.68854,-7.80521 -1.807632,-1.46341 -2.578363,-1.98438 -4.365623,-1.98438 -1.244071,0 -8.738129,0 -8.738129,0 l 0.0069,42.06187 -32.54375,0.0138 V 234.88469 H 119.8864 c 0,0 29.76562,0.53683 29.76562,28.85598 0,28.31915 -28.4427,30.42709 -28.4427,30.42709 z m -14.15521,-35.97699 -19.70167,-0.0127 -0.0098,18.26948 19.71146,-0.006 c 0,0 9.12812,-0.0283 9.12812,-9.29349 0,-9.45144 -9.12812,-8.95694 -9.12812,-8.95694 z"
             fill="url(#b"
             fill-rule="evenodd"
             id="path5"
             style="fill:#2c64b1;fill-opacity:1;stroke:none;stroke-width:0.264583" /></g></g></g></g></svg>
